<svg width="34" height="32" viewBox="0 0 34 32" fill="none" xmlns="http://www.w3.org/2000/svg">
<path d="M15.3698 5.33301H5.68884C4.95525 5.33301 4.25171 5.61396 3.73299 6.11406C3.21427 6.61415 2.92285 7.29243 2.92285 7.99967V26.6663C2.92285 27.3736 3.21427 28.0519 3.73299 28.552C4.25171 29.0521 4.95525 29.333 5.68884 29.333H25.0508C25.7843 29.333 26.4879 29.0521 27.0066 28.552C27.5253 28.0519 27.8167 27.3736 27.8167 26.6663V17.333" stroke="#C11215" stroke-width="2" stroke-linecap="round" stroke-linejoin="round"/>
<path d="M25.7421 3.33331C26.2923 2.80288 27.0385 2.50488 27.8166 2.50488C28.5947 2.50488 29.3409 2.80288 29.8911 3.33331C30.4413 3.86374 30.7504 4.58316 30.7504 5.33331C30.7504 6.08346 30.4413 6.80288 29.8911 7.33331L16.7527 20L11.2207 21.3333L12.6037 16L25.7421 3.33331Z" stroke="#C11215" stroke-width="2" stroke-linecap="round" stroke-linejoin="round"/>
</svg>
