<svg width="49" height="32" viewBox="0 0 49 32" fill="none" xmlns="http://www.w3.org/2000/svg">
<path d="M32.6667 6.60174C32.6667 10.1005 29.0103 12.9369 24.5 12.9369C19.9897 12.9369 16.3333 10.1005 16.3333 6.60174C16.3333 3.10294 19.9897 0.266602 24.5 0.266602C29.0103 0.266602 32.6667 3.10294 32.6667 6.60174Z" fill="#088412"/>
<path d="M46.2778 10.8252C46.2778 13.1577 43.8402 15.0486 40.8333 15.0486C37.8265 15.0486 35.3889 13.1577 35.3889 10.8252C35.3889 8.49263 37.8265 6.60174 40.8333 6.60174C43.8402 6.60174 46.2778 8.49263 46.2778 10.8252Z" fill="#088412"/>
<path d="M35.3889 25.6071C35.3889 20.9421 30.5138 17.1603 24.5 17.1603C18.4862 17.1603 13.6111 20.9421 13.6111 25.6071V31.9423H35.3889V25.6071Z" fill="#088412"/>
<path d="M13.6111 10.8252C13.6111 13.1577 11.1736 15.0486 8.16667 15.0486C5.15978 15.0486 2.72222 13.1577 2.72222 10.8252C2.72222 8.49263 5.15978 6.60174 8.16667 6.60174C11.1736 6.60174 13.6111 8.49263 13.6111 10.8252Z" fill="#088412"/>
<path d="M40.8333 31.9423V25.6071C40.8333 23.3811 40.0933 21.2891 38.7937 19.4712C39.4456 19.3412 40.1291 19.272 40.8333 19.272C45.3437 19.272 49 22.1083 49 25.6071V31.9423H40.8333Z" fill="#088412"/>
<path d="M10.2063 19.4712C8.9067 21.2891 8.16667 23.3811 8.16667 25.6071V31.9423H0V25.6071C0 22.1083 3.65634 19.272 8.16667 19.272C8.87093 19.272 9.55437 19.3412 10.2063 19.4712Z" fill="#088412"/>
</svg>
