<svg width="44" height="30" viewBox="0 0 44 30" fill="none" xmlns="http://www.w3.org/2000/svg">
<path fill-rule="evenodd" clip-rule="evenodd" d="M8.15583 3.43934C7.29668 2.85355 5.90371 2.85355 5.04456 3.43934C4.18541 4.02513 4.18541 4.97487 5.04456 5.56066L35.8446 26.5607C36.7037 27.1464 38.0967 27.1464 38.9558 26.5607C39.815 25.9749 39.815 25.0251 38.9558 24.4393L35.7149 22.2296C39.0974 20.3886 41.666 17.8817 42.9935 14.9999C40.1901 8.91432 31.8515 4.5 22.0007 4.5C18.4288 4.5 15.0558 5.08038 12.0733 6.11036L8.15583 3.43934ZM17.5301 9.83087L20.8606 12.1017C21.2242 12.0354 21.6064 12 22.0008 12C24.4308 12 26.4008 13.3431 26.4008 15C26.4008 15.2688 26.3489 15.5294 26.2516 15.7774L29.5821 18.0482C30.3564 17.1549 30.8008 16.1128 30.8008 15C30.8008 11.6863 26.8609 9 22.0008 9C20.3686 9 18.8403 9.30295 17.5301 9.83087Z" fill="#0F172A"/>
<path d="M27.3992 25.0451L21.4494 20.9884C17.0285 20.8021 13.491 18.3902 13.2177 15.3759L5.13702 9.86632C3.30158 11.3583 1.88421 13.0975 1.00781 15.0001C3.81122 21.0857 12.1498 25.5 22.0006 25.5C23.8633 25.5 25.6719 25.3422 27.3992 25.0451Z" fill="#0F172A"/>
</svg>
