<svg width="23" height="17" viewBox="0 0 23 17" fill="none" xmlns="http://www.w3.org/2000/svg">
<path d="M11.2969 16.5726C5.05763 16.5726 0 13.0283 0 8.65592C0 4.28355 5.05763 0.739258 11.2969 0.739258C17.5362 0.739258 22.5939 4.28355 22.5939 8.65592C22.5939 13.0283 17.5362 16.5726 11.2969 16.5726ZM11.2969 14.9893C13.6938 14.9893 15.9926 14.322 17.6874 13.1343C19.3823 11.9465 20.3345 10.3356 20.3345 8.65592C20.3345 6.97622 19.3823 5.36531 17.6874 4.17758C15.9926 2.98985 13.6938 2.32259 11.2969 2.32259C8.90002 2.32259 6.60129 2.98985 4.90642 4.17758C3.21155 5.36531 2.25939 6.97622 2.25939 8.65592C2.25939 10.3356 3.21155 11.9465 4.90642 13.1343C6.60129 14.322 8.90002 14.9893 11.2969 14.9893ZM10.1672 9.44759H15.8157C16.1153 9.44759 16.4027 9.531 16.6145 9.67946C16.8264 9.82793 16.9454 10.0293 16.9454 10.2393C16.9454 10.4492 16.8264 10.6506 16.6145 10.7991C16.4027 10.9475 16.1153 11.0309 15.8157 11.0309H9.03754C8.73793 11.0309 8.45059 10.9475 8.23873 10.7991C8.02687 10.6506 7.90785 10.4492 7.90785 10.2393V5.48926C7.90785 5.27929 8.02687 5.07793 8.23873 4.92946C8.45059 4.781 8.73793 4.69759 9.03754 4.69759C9.33716 4.69759 9.6245 4.781 9.83636 4.92946C10.0482 5.07793 10.1672 5.27929 10.1672 5.48926V9.44759Z" fill="#0CA31D"/>
</svg>
