<svg width="34" height="34" viewBox="0 0 34 34" fill="none" xmlns="http://www.w3.org/2000/svg">
<path d="M10.1429 4.55556H5.57143C3.0467 4.55556 1 6.14743 1 8.11111V29.4444C1 31.4081 3.0467 33 5.57143 33H28.4286C30.9533 33 33 31.4081 33 29.4444V8.11111C33 6.14743 30.9533 4.55556 28.4286 4.55556H23.8571M10.1429 4.55556C10.1429 6.51923 12.1896 8.11111 14.7143 8.11111H19.2857C21.8104 8.11111 23.8571 6.51923 23.8571 4.55556M10.1429 4.55556C10.1429 2.59188 12.1896 1 14.7143 1H19.2857C21.8104 1 23.8571 2.59188 23.8571 4.55556M17 17H23.8571M17 24.1111H23.8571M10.1429 17H10.1657M10.1429 24.1111H10.1657" stroke="#0F172A" stroke-width="2" stroke-linecap="round"/>
</svg>
