<svg width="34" height="28" viewBox="0 0 34 28" fill="none" xmlns="http://www.w3.org/2000/svg">
<path d="M11.3104 18.9521C9.51119 19.7185 8.29386 20.6088 7.5906 21.5916C6.9062 22.546 6.24266 23.5131 5.6004 24.4922C7.60667 24.8952 9.11493 24.702 10.202 24.028C11.7227 23.0865 12.7151 22.0112 13.2667 20.7624L11.3104 18.9521ZM13.8004 16.585L15.621 18.2699C16.9454 17.6389 18.2788 16.6395 19.6085 15.2438C21.6416 13.113 25.0722 9.31713 29.8844 3.87941C29.9419 3.81233 29.9707 3.728 29.9654 3.64251C29.96 3.55701 29.9208 3.47634 29.8552 3.41589C29.7897 3.35544 29.7024 3.31943 29.61 3.31475C29.5176 3.31006 29.4265 3.33702 29.3543 3.39048C23.489 7.83877 19.389 11.0135 17.0721 12.9015C15.5567 14.1338 14.4769 15.3644 13.8004 16.585ZM12.1886 26.7733C9.30592 28.5589 5.35944 28.3954 0.354492 26.2811C1.68104 24.0577 3.10237 21.8839 4.61512 19.7647C5.78425 18.1344 7.67092 16.8014 10.2734 15.7641C11.139 13.9042 12.6205 12.1252 14.7125 10.4189C17.0686 8.49949 21.1953 5.30492 27.0927 0.833501C27.8495 0.256287 28.8115 -0.0393635 29.7911 0.00421388C30.7706 0.0477912 31.6975 0.427471 32.391 1.0692C33.0844 1.71093 33.4947 2.56869 33.5418 3.47519C33.5889 4.38169 33.2694 5.27191 32.6457 5.97224C27.8085 11.4397 24.3547 15.257 22.2859 17.4275L16.8116 21.405C16.8116 21.405 14.5036 25.3363 12.1886 26.7717V26.7733Z" fill="#C11215"/>
</svg>
