<svg width="19" height="21" viewBox="0 0 19 21" fill="none" xmlns="http://www.w3.org/2000/svg">
<path d="M15.4832 14.6569C14.5517 15.5917 12.6057 17.5448 11.2631 18.8923C10.4815 19.6768 9.21265 19.6772 8.43101 18.8927C7.11181 17.5686 5.2035 15.6534 4.2106 14.6569C1.09777 11.5327 1.09777 6.46734 4.2106 3.34315C7.32344 0.218951 12.3703 0.218951 15.4832 3.34315C18.596 6.46734 18.596 11.5327 15.4832 14.6569Z" stroke="#0CA31D" stroke-width="2" stroke-linecap="round" stroke-linejoin="round"/>
<path d="M12.836 9C12.836 10.6569 11.4977 12 9.84689 12C8.19606 12 6.85779 10.6569 6.85779 9C6.85779 7.34315 8.19606 6 9.84689 6C11.4977 6 12.836 7.34315 12.836 9Z" stroke="#0CA31D" stroke-width="2" stroke-linecap="round" stroke-linejoin="round"/>
</svg>
