<svg width="20" height="18" viewBox="0 0 20 18" fill="none" xmlns="http://www.w3.org/2000/svg">
<path fill-rule="evenodd" clip-rule="evenodd" d="M16.2004 3.41371C15.3914 2.68529 14.4304 2.10808 13.3726 1.71529C12.3147 1.32251 11.181 1.1219 10.0367 1.12504C5.23438 1.12504 1.325 4.6259 1.32305 8.92972C1.32092 10.3002 1.7223 11.6466 2.48633 12.8321L1.25 16.875L5.86914 15.7898C7.14774 16.4132 8.57903 16.7394 10.0332 16.739H10.0367C14.8387 16.739 18.7477 13.2378 18.75 8.93429C18.7529 7.90793 18.529 6.89129 18.0913 5.94353C17.6536 4.99577 17.0108 4.13582 16.2004 3.41371ZM10.0367 15.4217H10.0336C8.73726 15.422 7.46449 15.1098 6.34766 14.5175L6.0832 14.3768L3.34219 15.0209L4.07383 12.6271L3.90156 12.381C3.17671 11.3482 2.79267 10.1513 2.79414 8.92972C2.79414 5.35328 6.04453 2.4434 10.0395 2.4434C11.9559 2.44032 13.7951 3.12245 15.1528 4.33977C16.5104 5.55708 17.2752 7.20988 17.2789 8.93465C17.2773 12.5114 14.0285 15.4217 10.0367 15.4217ZM14.009 10.5634C13.7914 10.4657 12.7199 9.9939 12.5215 9.92886C12.323 9.86383 12.1766 9.83113 12.0316 10.0266C11.8867 10.2221 11.4691 10.6594 11.3422 10.7912C11.2152 10.9231 11.0883 10.9375 10.8707 10.8398C10.6531 10.742 9.95117 10.5364 9.11953 9.87191C8.47227 9.35476 8.03555 8.71633 7.90859 8.52121C7.78164 8.32609 7.89492 8.22027 8.00391 8.12324C8.10195 8.0357 8.22148 7.89543 8.33047 7.78152C8.43945 7.66761 8.47578 7.58605 8.54805 7.45597C8.62031 7.3259 8.58437 7.21199 8.53008 7.11461C8.47578 7.01722 8.04023 6.05711 7.85898 5.66652C7.68203 5.28613 7.50273 5.33781 7.36914 5.33183C7.24219 5.32621 7.0957 5.3248 6.95156 5.3248C6.84137 5.32738 6.73295 5.35038 6.63308 5.39236C6.53321 5.43434 6.44402 5.4944 6.37109 5.56879C6.17148 5.76425 5.60898 6.23675 5.60898 7.19582C5.60898 8.15488 6.39023 9.083 6.49805 9.21308C6.60586 9.34316 8.0332 11.313 10.2172 12.1578C10.6227 12.3141 11.0371 12.4511 11.4586 12.5684C11.9801 12.7168 12.4547 12.696 12.8297 12.6457C13.248 12.5898 14.1188 12.1739 14.2996 11.7183C14.4805 11.2627 14.4809 10.8725 14.4266 10.7912C14.3723 10.71 14.227 10.6608 14.009 10.5634Z" fill="#479E39"/>
</svg>
