<svg width="43" height="36" viewBox="0 0 43 36" fill="none" xmlns="http://www.w3.org/2000/svg">
<path fill-rule="evenodd" clip-rule="evenodd" d="M5.021 13.8361C3.76376 14.4692 3 15.5795 3 16.774V30.4442C3 32.3576 4.92518 33.9087 7.3 33.9087H33.1C35.4748 33.9087 37.4 32.3576 37.4 30.4442V16.774C37.4 15.5795 36.6362 14.4692 35.379 13.8361L22.479 7.34009C21.0846 6.63794 19.3154 6.63794 17.921 7.34009L5.021 13.8361ZM10.6426 18.032C9.65462 17.5013 8.31975 17.7164 7.66109 18.5124C7.00243 19.3085 7.26941 20.384 8.25739 20.9147L19.0074 26.6889C19.7296 27.0768 20.6704 27.0768 21.3926 26.6889L32.1426 20.9147C33.1306 20.384 33.3976 19.3085 32.7389 18.5124C32.0802 17.7164 30.7454 17.5013 29.7574 18.032L20.2 23.1656L10.6426 18.032Z" fill="#4970FF"/>
</svg>
